<?xml version="1.0" encoding="UTF-8"?>
<svg id="_圖層_1" data-name="圖層_1" xmlns="http://www.w3.org/2000/svg" version="1.1" viewBox="0 0 32 32">
  <!-- Generator: Adobe Illustrator 30.3.0, SVG Export Plug-In . SVG Version: 2.1.3 Build 182)  -->
  <defs>
    <style>
      .st0 {
        stroke-width: .71px;
      }

      .st0, .st1 {
        fill: none;
        stroke: #605139;
        stroke-linecap: round;
        stroke-linejoin: round;
      }

      .st1 {
        stroke-width: .71px;
      }

      .st2 {
        fill: #fff;
      }

      .st3 {
        fill: #ffd543;
      }

      .st4 {
        fill: #605139;
      }
    </style>
  </defs>
  <circle class="st2" cx="16" cy="16" r="16"/>
  <g>
    <path class="st4" d="M26.51,14.17l1.64,1.71s.61-.45.61-.9-1.48-2.03-1.74-1.8-.52,1-.52,1Z"/>
    <path class="st1" d="M18.1,8.85s.02,2.2.02,2.49.04.72-.46.87c-.44.13-.9-.07-1.33.11-.56.24-.48.76-.5,1.31-.02.59,0,2.14,0,2.14"/>
    <g>
      <polygon class="st2" points="4.02 15.86 3.86 17 26.28 17.23 27.84 15.18 26.72 14.26 25.51 15.73 4.02 15.86"/>
      <path class="st3" d="M25.41,16.83c.95,0,1.5-.78,2.01-2l1.08.89s-1.21.91-1.31,1.36-.52,2.47-2.24,3.36-5.33,1.4-9.53,1.26-8.27-.47-9.68-1.5-2.53-3.64-2.04-3.64,1.79.22,4.41.26c6.22.08,16.65.02,17.31.02Z"/>
      <path class="st0" d="M25.37,15.79c-.81.04-13.14.06-16.81,0-1.61-.03-5.07-.33-5.35.13-.35.58,1.42,3.26,2.32,4,.84.69,2.88,1.15,4.87,1.48,1.7.28,9.81.42,11.7,0s3.11-1.02,3.96-1.87c.53-.52.93-2.21,1.13-2.45s1.72-1.37,1.64-1.71c-.06-.29-1.52-2.02-1.74-1.8-.3.29-.92,2.19-1.73,2.23Z"/>
      <path class="st4" d="M5.24,15.66s-.13,1.16-1.32,2.13c0,0-1-1.48-.71-1.87s2.03-.26,2.03-.26Z"/>
      <g>
        <g>
          <circle class="st4" cx="20.28" cy="17.57" r=".57"/>
          <circle class="st4" cx="20.28" cy="19.85" r=".57"/>
        </g>
        <g>
          <circle class="st4" cx="21.42" cy="18.71" r=".57"/>
          <circle class="st4" cx="19.13" cy="18.71" r=".57"/>
        </g>
      </g>
      <g>
        <rect class="st4" x="9.61" y="18.14" width="3.42" height="1.14" rx=".57" ry=".57"/>
        <rect class="st4" x="9.61" y="18.14" width="3.42" height="1.14" rx=".57" ry=".57" transform="translate(30.03 7.39) rotate(90)"/>
      </g>
    </g>
  </g>
</svg>